<svg xmlns="http://www.w3.org/2000/svg" viewBox="0 0 126 150">
<!-- SVG created with Arrow, by QuiverAI (https://quiver.ai) -->
  <style type="text/css">.cls-0 {fill:#FFF4E1;}
.cls-1 {fill:#E53B30;}
.cls-2 {fill:#C92C24;}
.cls-3 {fill:#FEDAAA;}
.cls-4 {fill:#E2B98B;}
.cls-5 {fill:none;stroke:#38100E;stroke-width:2.5718;stroke-linecap:round;stroke-linejoin:round;stroke-miterlimit:10;}
.cls-6 {fill:#F29E8F;}
.cls-7 {fill:#E5832B;}
.cls-8 {fill:#C16421;}
.cls-9 {fill:#FFFFFF;}
.cls-10 {fill:none;stroke:#38100E;stroke-width:1.837;stroke-linecap:round;stroke-linejoin:round;stroke-miterlimit:10;}
.cls-11 {fill:#38100E;}
.cls-12 {fill:none;stroke:#38100E;stroke-width:2.0575;stroke-linecap:round;stroke-linejoin:round;stroke-miterlimit:10;}
.cls-13 {fill:none;stroke:#38100E;stroke-width:1.9934;stroke-linecap:round;stroke-linejoin:round;stroke-miterlimit:10;}
.cls-14 {fill:#ED9735;}
.cls-15 {fill:#C15C21;}
.cls-16 {fill:none;stroke:#38100E;stroke-width:2.358;stroke-linecap:round;stroke-linejoin:round;stroke-miterlimit:10;}
.cls-17 {fill:none;stroke:#38100E;stroke-width:1.9127;stroke-linecap:round;stroke-linejoin:round;stroke-miterlimit:10;}
.cls-18 {fill:none;stroke:#38100E;stroke-width:1.8307;stroke-linecap:round;stroke-linejoin:round;stroke-miterlimit:10;}
.cls-19 {fill:#EFD7B9;}
.cls-20 {fill:#FFFFFF;}
.cls-21 {fill:none;stroke:#38100E;stroke-width:2.5;stroke-linecap:round;stroke-miterlimit:10;}
.cls-22 {fill:none;stroke:#38100E;stroke-width:1.837;stroke-linecap:round;stroke-miterlimit:10;}
.cls-23 {fill:none;stroke:#38100E;stroke-width:2.0702;stroke-linecap:round;stroke-miterlimit:10;}
.cls-24 {fill:none;stroke:#38100E;stroke-width:1.9085;stroke-linecap:round;stroke-miterlimit:10;}
.cls-25 {fill:#F2A040;}
.cls-26 {fill:none;stroke:#38100E;stroke-width:2.358;stroke-linecap:round;stroke-miterlimit:10;}</style>
  <path class="cls-1" d="m104.6 44.9c-1.6-2.8-2.6-3.9-3.1-7.9-0.4-3.3-1.4-6.1-2.5-8.4 2.5-2.7 3.9-9.4 1.7-17.4-0.9-3.3-3.7-7.6-5.2-7.9-2.2-0.5-7.9 6.2-11.2 13.3-2.8-0.9-6.6-1.8-11.7-1.8-3.6 0-7.5 0.7-11.6 1.9-1.7-7-7.4-14.3-9-13.8s-4.9 5.1-5.8 9.2c-0.6 2.7-0.2 6.5 0.4 10.6-2.7-1.2-7.8-2.5-13.8-2.1-11.8 0.6-24.9 7.6-28.7 20.4-1.4 4.4-1.2 11.8 2.7 21.5 1.6-3 4.5-6.5 7.7-6.6 3.6-0.2 5.4 2.9 5.5 6.5 0.2 5.7-4.3 16.8-4.9 28.6-0.8 16.5 6.4 30.4 20.8 39.7l0.9 3c-3.8 0-10.2 2.5-10 9.2l26.1 0.3 36.2-0.2-2.6-6c2-2.8 3.4-8 1.6-18.3l-1-2.1-0.7-1.3c0.2-5.8 0.5-12.7 0.5-12.7 4.2 3.3 17.5-3.1 19-8.5 3.3-6.6 0.3-15-8.8-27.1l-2.2-2.1c3.2-1.2 8.2-5.5 9.2-9.3 0.8-2.9 1.7-8.5 0.5-10.7z"/>
  <path class="cls-2" d="m26.1 64.2c-1.6 14.8-6.4 39.3 5.2 51.3l-4.4 7.4c3.2 3.7 9 7.8 9 7.8l1.1 3.1c-4.1-0.2-10.4 3.6-10.2 9.1l26.1 0.3 0.6-12.5c-9 0-20.4-9.8-20.1-23.6l6.1-11.5 1.7-11c-8.5 0.6-13.2-11-15.1-20.4z"/>
  <path class="cls-3" d="m56.3 28.4c-4.4 0-6.9 5.5-6.9 11.5 0 3.4-3.4 2.9-5.3 4.1-1.2 1.7-2.9 3.7-2.4 6.6 1.4 8.9 12.4 15.8 27.2 17.8h-6.2c6.2 0.8 17 1.1 21.7 0.3l-0.7-0.3c10.9-1.9 19.7-7 20.4-13.4 0.3-3.1 1.8-6.4-3.5-12.9l-3.7-2.5c0-8.6-4.8-11.2-7.8-11.2-5 0-8.9 4.6-9.1 13.9-0.1 3.8-1.5 3.1-7.8 3.1-5.1 0-7.5-1.8-7.5-1.8 0.5-8.4-3.6-15.2-8.4-15.2z"/>
  <path class="cls-4" d="m49.2 68.3c4.4 2.3 10.3 5.1 23.7 5.4 8.8 0 15.5-1.3 23.5-4l1.5-0.4-3-4.4c-3 1.7-7.5 3.6-11.3 3.8l-21-0.3-12-3-1.4 2.9z"/>
  <path class="cls-4" d="m41.7 50.6c0.2 9.3 10.4 17.3 19.3 18 7.1 0.6 17.7 1.1 22.7 0.1 7.3-1.1 19-5.1 19.9-14.1-4.1 5.5-11.5 11.5-30.7 11.6-16.2 0-28.3-5.8-31.2-15.6z"/>
  <path class="cls-3" d="m57.5 71.8c-2 3.8-4 9.2-4 10.3 0 6.3 3.2 9.9 7 12.4l4.4-6c-0.8-3.6 2.6-7 7.3-6.9 3.9 0.1 7.4 1.3 9.3 2.9l4.2-4 2.4 0.6 0.6 2.4-4 3 4.3 4.5 2.1-2s1.4-3.5 1.4-6.5-4-10.9-4-10.9c-3.4 0.8-9.4 1.9-15.6 2-7 0-12-0.9-15.4-1.8z"/>
  <path class="cls-6" d="m6.4 38.9c4.1-4.9 12.5-13.4 26-13.4 6.2 0 10.3 1.1 14.6 3.5l1.4-1.9-1.9-3.9c-3-1.2-7.5-2.3-12-2.3-6.8 0-22 1.8-28.1 18z"/>
  <path class="cls-6" d="m59 18.1c1.7-0.5 5.6-3 13.6-3.1 4 0 8.4 0.7 13.3 2 1.8 0.5 0.7 2.6-2.2 1.9-3.1-0.7-6-1.5-10.7-1.5-6.4 0-10.8 1.5-12.6 1.8-1.5 0.2-1.5-1-1.4-1.1z"/>
  <path class="cls-7" d="m4.6 48.4c1.1-2.2 4.3-4.7 7.9-4.5 5.6 0.2 14 4.6 13.6 19-0.4 11.3-4.2 23.8 0.5 43.2l4.3 8.9-3.9 7.6c-5.3-4.5-11.9-15-11.9-27.6 0-13.1 4.8-25.9 4.9-32 0-3.4-1.5-7-4.4-7-3.7 0-6.7 2.6-8.7 5.5-2-3.4-2.8-9.9-2.3-13.1z"/>
  <path class="cls-7" d="m50.6 5.2c-4.5 4.5-6 12.8-1.9 20.8l4.7-5.6c2.5-4.7 0.2-12.2-2.8-15.2z"/>
  <path class="cls-8" d="m52.1 8.6c-2 1.3-3.6 8.4-1.6 14.4l3.1-3.5 1.1-4.1-1.5-6.2-1.1-0.6z"/>
  <path class="cls-7" d="m94.6 7.2c-1.5 2.7-4.5 10.7 2.3 18.4l0.8 1.1c2.7-1.2 3.8-10 2.2-16l-3.5-6.3-1.8 2.8z"/>
  <path class="cls-8" d="m93.5 8.9 3 6.1c0.6 2.2 0.1 6-1 7.5l1.6 3.1c3.4-1.2 3.9-14.2-2.1-20.7l-1.5 4z"/>
  <path class="cls-3" d="m59 104.5 2 9.2 8.2-1.7 10 0.4 7.3-7.3-0.3-8.7-2.7-1.2c-3 4.9-9.3 16.2-24.5 14.2v-4.9z"/>
  <path class="cls-3" d="m86.4 105.1 4.7-0.9 14.4-9.3 1 0.2-0.4 19-10.7 0.5-7 3.5-1.3-1.5-1-1.5 0.3-10z"/>
  <path class="cls-6" d="m60.6 94.1 4.3-5.6 2 0.5-4.9 7-1.4 0.6v-2.5z"/>
  <path class="cls-6" d="m65.5 86.4c1.4-1.2 3.5-2.5 6.6-2.8 3.3-0.1 7.4 1 9 2.3-2.7-1-5.5-1.9-8.2-1.9-3.8 0-5.8 1.4-7.4 2.4z"/>
  <path class="cls-2" d="m81.5 85.7c2.2 1.2 5.1 3.2 7 5.8-1.6 1.7-4.4 3.9-5 6l-3.4-0.9 3.4-2.7c1.1-1.3 1-4.8-0.9-7l-1.1-1.2z"/>
  <path class="cls-2" d="m89.5 99 2.2-0.5c4.9-1.8 11.2-5 13.8-12.1l0.5-1.8 1 1.5-1.1 8-5.9 5.3-7.1 4.3-4.9 0.9-3.5-1.2-1.4-2.4v-2.4l6.4 0.4z"/>
  <path class="cls-2" d="m60 109.4 1.1 4.7 8-2.2 10 0.5 1.4-1.7 5-5-1.6-2.6-0.4-3.2-3.4-3.4c-2.4 8.2-12.4 15.9-20.1 12.9z"/>
  <path class="cls-8" d="m94.9 4.9"/>
  <path class="cls-8" d="m94.5 8.9"/>
  <path class="cls-5" d="m60.1 17.2c-1.1-5.6-6.2-14.6-8.1-14.2-1.5 0-9.9 9.4-5.1 20.7 0.5 1 1.8 3.7 1.8 3.7"/>
  <path class="cls-5" d="m84 16.6c2.4-6 7.7-13.9 9.9-13.4 2-0.8 6.3 4.7 6.8 11.4 0.4 5.8-1.1 9.8-3.2 12.6"/>
  <path class="cls-12" d="m50.4 65.1c-4.3 6.3-11.8 14.3-11.7 22.8 0 3.5 0.9 5.8 2.7 7.8 2.7 3.3 9.2 8.9 15.3 8.8 6-0.3 6.9-4.3 4.7-7.9-3-4-7.8-5.2-8.2-14.7"/>
  <path class="cls-13" d="m83.4 107.7c4.1-4.5 4.7-6.2 7.3-7.7"/>
  <path class="cls-12" d="m94.1 64.6c4.3 5 12.3 14.4 12.5 22.3 0.1 4.2-0.9 7.1-4.2 10-3.2 2.8-8.8 7.5-14.2 7.6-2.8 0-5.5-1.4-5-4.9 0.5-4 10.2-7.2 8.9-17.9"/>
  <path class="cls-12" d="m58.5 104.6c0.6 3.3 2.6 9.3 2.6 10"/>
  <path class="cls-5" d="m40.1 94.6c-3.9 3.8-8.6 9.8-8.6 20.9 0.1 6 1.9 10.4 4 15"/>
  <path class="cls-5" d="m47 22.9c-18.3-6.5-37.5 1.6-42.5 17.6-1.8 6-0.9 13.1 2.2 22 2.2-4.1 5.4-7.1 8.8-6.6 2.2 0.2 4.4 2.6 4.4 6.6 0.1 6.4-4.8 18.2-4.9 29.9-0.3 15.5 6.1 29 20.6 38.1"/>
  <path class="cls-12" d="m59.1 17.4c3.5-1.4 7.4-2.7 13.5-2.8 4.3 0 8 0.6 13.3 2.5"/>
  <path class="cls-5" d="m97 27c2.6 3.6 3 6.9 3.6 11.4 0.8 5.5 3.9 6.1 3.9 11.5 0 5.1-3.8 11.5-9.9 14.7"/>
  <path class="cls-1" d="m36.6 133.6c-3.7 0-9.9 2-9.9 8.5l25.8 0.9-1.3-5.4c-2.3-1.5-8-4-14.6-4z"/>
  <path class="cls-1" d="m90.4 143.9 31.8-0.8c0.4-4.5-1.8-7-6.3-9.1l-4.3 5.9-6.4 3.5-14.8 0.5z"/>
  <path class="cls-5" d="m51.5 137.6c-3.4-2-8-3.9-14.1-4-4.3-0.2-10.8 1.4-10.8 8.4 0 0.9 0.5 1 0.8 1h25.2"/>
  <path class="cls-5" d="m90 143.9 4-0.2 7.1 0.2c7.5 0.1 14.5-3.5 15.3-10.2 3.3 1.2 6.5 3.3 6.5 8.2 0 1-0.4 1.1-0.9 1.1h-16.1"/>
  <path class="cls-14" d="m52.5 143.5c-2-4.1-2.3-12.9 0.1-18.1 2.6-5.9 9.4-13.4 20-13.8 4.1-0.1 9.3 0.6 15 4 1.3 4.5 2.8 12.8-0.7 19.8-2.2 4.2-7.7 11.1-18.3 11.6-4.7 0.2-11.1-0.5-16.1-3.5z"/>
  <path class="cls-15" d="m53.6 142.4c7.1 0.8 23.5-1.8 32.8-17.3 1.1-2.1 0.5-9.5 1.2-9.5 2.8 4 2.8 16.4-2.1 22.3-3.8 4.6-8.6 9-18.8 9.1-4.5 0-10.1-1-14.2-3.5l1.1-1.1z"/>
  <path class="cls-5" d="m52.5 143.5c7.5 4 15.4 4 20.1 3.1 7.5-1.6 11.4-6.1 13.8-9.6 3.2-5 3.5-11.4 2-20.5-0.2-1.4-6.3-4.5-13-4.8-6.8-0.3-11.9 1.5-16 4.7-3.3 2.7-8.9 8.7-8.4 18.2 0.1 4.5 1.5 8.9 1.5 8.9z"/>
  <path class="cls-16" d="m53.5 142.4c5.2-6.7 19-19.9 33.4-26"/>
  <path class="cls-17" d="m59 126.4c0-3.3 3-6 6.2-6 3.4 0 3.4-4.4 9.9-4.2"/>
  <path class="cls-18" d="m62.1 140.2c2.4-2.7 4.8-1 6.3-2.5 1.7-1.7 1.2-5.2 4.8-5.2 2.3 0 4.2-0.5 4.4-3.6 0.1-2.5 2.1-4 3.6-4.9"/>
  <path class="cls-18" d="m62.1 142.5"/>
  <path class="cls-18" d="m70.3 142.1c2.9-3 5.4-2.2 7.7-4 2.9-2.1 1.7-4.5 4.1-7.4l1.3-1.1"/>
  <path class="cls-17" d="m54.5 134.6c0-1.2 1-3 1.4-4"/>
  <path class="cls-12" d="m51 3.4c2.5 4.6 4.2 9.1 3.6 13.7-0.9 5.1-6.7 8.3-8.2 16.1-0.9 4.2-0.7 6.5-2.9 9.9-1.3 2.3-2.8 4.3-2.6 7.9 0.5 10 10.6 15.9 20 17.6"/>
  <path class="cls-12" d="m84 68.7c3.7-0.7 7.5-2 10.6-3.6"/>
  <path class="cls-9" d="m59 33.4c-3.6-1.9-7.1 0.6-7.8 4.5-0.5 3.2 0.8 6.7 4.9 7 4.4 0.1 6.4-2.7 6.3-5.9 0-1.9-1.2-4.5-3.4-5.6z"/>
  <path class="cls-11" d="m57.4 34.9c-2.7 0-4.2 2.8-4.2 5.1 0 2.1 1.5 5 4.2 5 2.8 0 4.8-2.3 4.8-5 0-2.8-2.1-5.1-4.8-5.1z"/>
  <path class="cls-9" d="m59.7 36.7c-1.1-0.6-2.3 0.2-2.3 1.2-0.2 1 0.6 2.1 1.8 2.1 0.9 0 1.4-1 1.3-1.9 0-0.5-0.4-1.1-0.8-1.4z"/>
  <path class="cls-9" d="m87.5 33c-2.4 0.9-4.1 4.1-3.6 7 0.5 3.4 3.1 5.5 6.1 5 2.9-0.4 4.5-2.8 4.2-6-0.3-3.8-3.3-6.9-6.7-6z"/>
  <path class="cls-11" d="m87.6 34.7c-2.6 0.3-4.2 3-4.6 5.3 0 2.7 2 5 4.6 5.1 3 0.1 4.9-2.4 4.9-5.1 0-2.6-2.4-5.5-4.9-5.3z"/>
  <path class="cls-9" d="m89.2 36.5c-1.1 0-1.7 1.1-1.6 1.9 0 0.7 0.6 1.6 1.5 1.5 0.8-0.2 1.4-0.8 1.3-1.7 0-0.8-0.5-1.7-1.2-1.7z"/>
  <path class="cls-11" d="m66.5 45.5c-0.4 2.1 2.2 4.6 6.1 4.7 2.3 0 6-1.8 5.6-5.1-1.1-3-10.7-3.6-11.7 0.4z"/>
  <path class="cls-10" d="m63 51.5c0.6 2.2 1.9 4.6 5.5 4.4 2.1 0 3.6-1.2 4.1-2.5 0.5 1.3 1.8 3.1 4.3 3.1 3 0 4.7-2.3 5-4.8"/>
  <line class="cls-10" x1="72.6" x2="72.6" y1="49.4" y2="53.4"/>
  <path class="cls-2" d="m82.1 84.4 2.5-2.9c0.9-1 2.3-1.4 3.1 0.1 0.8 1 0.8 1.8-0.3 2.5l-2.7 2.4-2.6-2.1z"/>
  <path class="cls-12" d="m81.7 84.7 2.7-3.1c1-1.1 2.2-1.6 3.2-0.1 0.8 1.1 0.8 1.7-0.2 2.5-0.9 0.6-3 2.4-3 2.9"/>
  <path class="cls-5" d="m63.5 89.6c0.4-0.6 1-1.2 1-1.9-0.4-2.6 2.5-5.3 5.2-5.8 5.9-1 13 1.7 18.8 9.2"/>
  <path class="cls-5" d="m64.5 88.1c4.9 0.6 15 6.4 18.5 10.5"/>
  <path class="cls-21" d="m55.4 98.6c1 1.3 4.1 2.8 5.7 2.6"/>
  <path class="cls-21" d="m84.5 101.6c1.5-0.1 4.4-1.2 5.5-2.2l0.1-0.3-0.1 0.3 0.1-0.3-0.1 0.3 0.1-0.3"/>
  <path class="cls-22" d="m32.9 137.6c-1.2 0.9-1.8 2.8-1.5 4.8"/>
  <path class="cls-22" d="m39.4 137.7c-1 0.8-1.9 2.9-1.9 4.8"/>
  <path class="cls-23" d="m116.5 142.7c0.4-2.1-0.1-3.8-1.1-5.1"/>
  <path class="cls-8" d="m93.6 9.1c0.8-2.5 1.5-4 1.5-4l0.5 0.1s4 4.2 3.5 11.4c-0.2 4.5-1.5 6.6-1.5 6.6l-2.9-3.6c-1.6-2-2.1-6.4-1.1-10.5z"/>
  <path class="cls-12" d="m94.5 4.1c-2.3 4.5-4.5 11.3-2.3 15.6 1.7 3.4 5.3 5.9 6.3 8.9"/>
  <path class="cls-5" d="m36.1 131.1"/>
  <path class="cls-24" d="m36.1 131.1"/>
  <path class="cls-3" d="m88.7 118.7c2.5-2.6 6.9-5 12.9-4.8 4 0.1 6 0 8-0.5 1.5 4.5 3.6 6.6 4.8 9 4.1 7.5 0.8 17.5-9.5 21-3.8 0.7-8.4-0.4-14.4 0.2-0.3-1.2-3.4-5.5-4.1-6.7 3-5.7 3-12.4 2.3-18.2z"/>
  <path class="cls-19" d="m88.1 131.6 4.5 7.4 1.5 4 4.9 0.6-5 0.1c-0.8 0.3-1.8 0.2-2.6-0.1l-4.3-6-0.7-0.9 1.7-5.1z"/>
  <path class="cls-19" d="m103.4 140.1c4-1.5 10.2-3.5 12.2-5.9l-1.2 2.2-3.9 4.5-5.1 2.5-4.8 0.5 2.8-3.8z"/>
  <path class="cls-20" d="m88.9 121.9c3-3.8 7.5-6.3 15.2-6.3l5.1-0.6c0.4 3.6 3.4 6 4.9 9.5h-0.5c-2.1-1.1-4.2-8.1-5.5-8.1-9.1 0.2-15.5 0.6-18.5 6.6l-0.7-1.1z"/>
  <path class="cls-25" d="m53.6 130.6c1.8-4.7 7.1-14.7 19-16l4.9 0.3c-7 0.7-7.3 7.7-12 8.1-2.6 0.2-4.1-0.6-5.3 2.1l-1.6 8.8-5 0.7v-4z"/>
  <path class="cls-7" d="m61.2 134.6c2.4-2 5.8-1 6.5-4.7l0.9-1.8 4.6-1.7c-2.5 4.3-6.5 7.8-12 8.2z"/>
  <path class="cls-7" d="m68.6 140.1c4.1-1.4 8.3-3.7 10.1-7.1l2.2-0.5-4 5.1-7.2 3.8-1.1-1.3z"/>
  <path class="cls-8" d="m89.1 124.1c0.3 3.5 1.9 10.3 3.5 11-1.9-4.5 1.3-11.6 4-16.4-2.7 1-6.5 5.9-7.5 10.3v-4.9z"/>
  <path class="cls-8" d="m91.6 134.9 1.4 0.7c-0.9-3.5-0.1-10.7 6.5-16-1.4 2.4-6 8.3-6.1 14.3l0.3 2.5-0.2 1.7-1.9-3.2z"/>
  <path class="cls-8" d="m93.6 136.7c0.1-2.6 1.8-7.8 10.1-16.5-1.1 4.8-6.7 10.4-9.2 17.2l-0.4 2.5-0.5-3.2z"/>
  <path class="cls-8" d="m98.5 139.1c3-1.5 8.7-4.5 9-13.6-2.1 6.6-6.9 10.6-10.6 12.4l1.6 1.2z"/>
  <path class="cls-19" d="m98.5 138.5 3.1-0.1c1.6 0.3 5-3 5.6-6.8l-8.7 6.9z"/>
  <path class="cls-8" d="m98.1 139.9 3.5-1.2c2.1 0.7 8-2.8 9.9-8.1-0.1 4.5-3.5 8.3-7.4 9.5l-6 0.8v-1z"/>
  <path class="cls-15" d="m93.4 135.9c-0.8 2.7 0.2 3.2 0.1 4.7l5-1.2v-0.9l-4-1.5-1.1-1.1z"/>
  <path class="cls-8" d="m98.1 140.6c2.5-1.7 7.5-4 8.5-6.5l-1.5 3-3.5 2-3.5 1.5z"/>
  <path class="cls-8" d="m98.1 140.6 3.8-1.5 2.8-0.4-2.2 1.7-4.4 0.2z"/>
  <path class="cls-8" d="m98.1 140.6c0.6-0.9 2.9-1.9 6.1-1.9l-1.7 1.7-4.4 0.2z"/>
  <path class="cls-8" d="m98.1 140.6 2.5-0.7 1.8-0.8 0.2 1.3-4.5 0.2z"/>
  <path class="cls-8" d="m99.1 140.6c1.1-1 2.3-1.7 4.5-1.9l-1 1.7-3.5 0.2z"/>
  <path class="cls-16" d="m88.1 118.4c2.4-2.9 6.4-4.8 11.9-4.5 3.4 0 6.9 0 9.6-0.5 2.4 6.2 4.8 7.6 6 11.6 2.5 7.5-1.9 17.4-13.7 18.7-3.2 0.2-6.7-0.5-11.4 0.2-0.4-2-3.9-6-4.6-7.2"/>
  <path class="cls-26" d="m115.6 133.9c3.5 1 7.3 3.1 7.1 8.5 0 0.6-0.3 0.6-0.6 0.6"/>
</svg>